<?xml version="1.0" standalone="no"?>
<svg xmlns:xlink="http://www.w3.org/1999/xlink" id="wave" style="transform:rotate(0deg); transition: 0.3s" viewBox="0 0 1440 260" version="1.1" xmlns="http://www.w3.org/2000/svg"><defs><linearGradient id="sw-gradient-0" x1="0" x2="0" y1="1" y2="0"><stop stop-color="rgba(36.799, 36.799, 36.799, 1)" offset="0%"/><stop stop-color="rgba(84.611, 84.611, 84.611, 1)" offset="100%"/></linearGradient></defs><path style="transform:translate(0, 0px); opacity:1" fill="url(#sw-gradient-0)" d="M0,130L40,121.3C80,113,160,95,240,91C320,87,400,95,480,82.3C560,69,640,35,720,26C800,17,880,35,960,73.7C1040,113,1120,173,1200,186.3C1280,199,1360,165,1440,138.7C1520,113,1600,95,1680,104C1760,113,1840,147,1920,147.3C2000,147,2080,113,2160,86.7C2240,61,2320,43,2400,60.7C2480,78,2560,130,2640,130C2720,130,2800,78,2880,69.3C2960,61,3040,95,3120,99.7C3200,104,3280,78,3360,82.3C3440,87,3520,121,3600,134.3C3680,147,3760,139,3840,147.3C3920,156,4000,182,4080,190.7C4160,199,4240,191,4320,156C4400,121,4480,61,4560,60.7C4640,61,4720,121,4800,160.3C4880,199,4960,217,5040,195C5120,173,5200,113,5280,82.3C5360,52,5440,52,5520,52C5600,52,5680,52,5720,52L5760,52L5760,260L5720,260C5680,260,5600,260,5520,260C5440,260,5360,260,5280,260C5200,260,5120,260,5040,260C4960,260,4880,260,4800,260C4720,260,4640,260,4560,260C4480,260,4400,260,4320,260C4240,260,4160,260,4080,260C4000,260,3920,260,3840,260C3760,260,3680,260,3600,260C3520,260,3440,260,3360,260C3280,260,3200,260,3120,260C3040,260,2960,260,2880,260C2800,260,2720,260,2640,260C2560,260,2480,260,2400,260C2320,260,2240,260,2160,260C2080,260,2000,260,1920,260C1840,260,1760,260,1680,260C1600,260,1520,260,1440,260C1360,260,1280,260,1200,260C1120,260,1040,260,960,260C880,260,800,260,720,260C640,260,560,260,480,260C400,260,320,260,240,260C160,260,80,260,40,260L0,260Z"/></svg>